<svg width="102" height="106" viewBox="0 0 102 106" fill="none" xmlns="http://www.w3.org/2000/svg">
<path d="M8.3125 104.375C8.3125 104.375 0 104.375 0 96.0625C0 87.75 8.3125 62.8125 49.875 62.8125C91.4375 62.8125 99.75 87.75 99.75 96.0625C99.75 104.375 91.4375 104.375 91.4375 104.375H8.3125ZM49.875 54.5C56.4888 54.5 62.8318 51.8727 67.5085 47.196C72.1852 42.5193 74.8125 36.1763 74.8125 29.5625C74.8125 22.9487 72.1852 16.6057 67.5085 11.929C62.8318 7.25234 56.4888 4.625 49.875 4.625C43.2612 4.625 36.9182 7.25234 32.2415 11.929C27.5648 16.6057 24.9375 22.9487 24.9375 29.5625C24.9375 36.1763 27.5648 42.5193 32.2415 47.196C36.9182 51.8727 43.2612 54.5 49.875 54.5V54.5Z" fill="#0000FF"/>
</svg>
