<svg width="149" height="177" viewBox="0 0 149 177" fill="none" xmlns="http://www.w3.org/2000/svg">
<circle cx="75.5" cy="68.5" r="68.5" fill="#A8B2D9"/>
<path d="M71.3333 23V34.375H78.9167V23H71.3333ZM59.5033 28.5358L54.1192 33.8821L62.1954 41.9583L67.5417 36.5742L59.5033 28.5358ZM90.7467 28.5358L82.7083 36.5742L88.0546 41.9583L96.1308 33.92L90.7467 28.5358ZM75.125 41.9583C73.1138 41.9583 71.1849 42.7573 69.7628 44.1794C68.3406 45.6016 67.5417 47.5304 67.5417 49.5417V53.3333H54.2708C51.7683 53.3333 49.645 54.9258 48.8867 57.125L41 79.875V110.208C41 111.214 41.3995 112.178 42.1106 112.889C42.8216 113.601 43.7861 114 44.7917 114H48.5833C49.5889 114 50.5534 113.601 51.2644 112.889C51.9755 112.178 52.375 111.214 52.375 110.208V106.417H97.875V110.208C97.875 111.214 98.2745 112.178 98.9855 112.889C99.6966 113.601 100.661 114 101.667 114H105.458C106.464 114 107.428 113.601 108.139 112.889C108.851 112.178 109.25 111.214 109.25 110.208V79.875L101.363 57.125C100.605 54.9258 98.4817 53.3333 95.9792 53.3333H82.7083V49.5417C82.7083 47.5304 81.9094 45.6016 80.4872 44.1794C79.0651 42.7573 77.1362 41.9583 75.125 41.9583ZM54.2708 59.0208H95.9792L101.667 76.0833H48.5833L54.2708 59.0208ZM54.2708 83.6667C55.7793 83.6667 57.2259 84.2659 58.2925 85.3325C59.3591 86.3991 59.9583 87.8458 59.9583 89.3542C59.9583 90.8626 59.3591 92.3092 58.2925 93.3758C57.2259 94.4424 55.7793 95.0417 54.2708 95.0417C52.7624 95.0417 51.3158 94.4424 50.2492 93.3758C49.1825 92.3092 48.5833 90.8626 48.5833 89.3542C48.5833 87.8458 49.1825 86.3991 50.2492 85.3325C51.3158 84.2659 52.7624 83.6667 54.2708 83.6667ZM95.9792 83.6667C97.4876 83.6667 98.9342 84.2659 100.001 85.3325C101.067 86.3991 101.667 87.8458 101.667 89.3542C101.667 90.8626 101.067 92.3092 100.001 93.3758C98.9342 94.4424 97.4876 95.0417 95.9792 95.0417C94.4707 95.0417 93.0241 94.4424 91.9575 93.3758C90.8909 92.3092 90.2917 90.8626 90.2917 89.3542C90.2917 87.8458 90.8909 86.3991 91.9575 85.3325C93.0241 84.2659 94.4707 83.6667 95.9792 83.6667Z" fill="#0000FF"/>
<path d="M12.1548 161.638C12.098 161.065 11.8542 160.62 11.4233 160.303C10.9924 159.985 10.4077 159.827 9.66903 159.827C9.16714 159.827 8.74337 159.898 8.39773 160.04C8.05208 160.177 7.78693 160.369 7.60227 160.615C7.42235 160.861 7.33239 161.141 7.33239 161.453C7.32292 161.714 7.37737 161.941 7.49574 162.135C7.61884 162.329 7.78693 162.497 8 162.639C8.21307 162.777 8.45928 162.897 8.73864 163.001C9.01799 163.101 9.31629 163.186 9.63352 163.257L10.9403 163.57C11.5748 163.712 12.1572 163.901 12.6875 164.138C13.2178 164.375 13.6771 164.666 14.0653 165.011C14.4536 165.357 14.7543 165.764 14.9673 166.233C15.1851 166.702 15.2964 167.239 15.3011 167.845C15.2964 168.735 15.0691 169.507 14.6193 170.161C14.1742 170.809 13.5303 171.313 12.6875 171.673C11.8494 172.028 10.8385 172.206 9.65483 172.206C8.48059 172.206 7.45786 172.026 6.58665 171.666C5.72017 171.306 5.04309 170.774 4.5554 170.068C4.07244 169.358 3.81913 168.48 3.79545 167.433H6.77131C6.80445 167.921 6.94413 168.328 7.19034 168.655C7.44129 168.977 7.77509 169.221 8.19176 169.386C8.61316 169.547 9.08902 169.628 9.61932 169.628C10.1402 169.628 10.5923 169.552 10.9759 169.401C11.3641 169.249 11.6648 169.038 11.8778 168.768C12.0909 168.499 12.1974 168.188 12.1974 167.838C12.1974 167.511 12.1004 167.237 11.9062 167.014C11.7169 166.792 11.4375 166.602 11.0682 166.446C10.7036 166.29 10.2562 166.148 9.72585 166.02L8.14205 165.622C6.91572 165.324 5.94744 164.857 5.23722 164.223C4.52699 163.589 4.17424 162.734 4.17898 161.659C4.17424 160.778 4.40862 160.009 4.8821 159.351C5.36032 158.693 6.0161 158.179 6.84943 157.81C7.68277 157.44 8.62973 157.256 9.69034 157.256C10.7699 157.256 11.7121 157.44 12.517 157.81C13.3267 158.179 13.9564 158.693 14.4062 159.351C14.8561 160.009 15.0881 160.771 15.1023 161.638H12.1548ZM19.0813 172.185C18.6126 172.185 18.2101 172.019 17.8739 171.688C17.5425 171.351 17.3768 170.949 17.3768 170.48C17.3768 170.016 17.5425 169.618 17.8739 169.287C18.2101 168.955 18.6126 168.79 19.0813 168.79C19.5359 168.79 19.9336 168.955 20.2745 169.287C20.6154 169.618 20.7859 170.016 20.7859 170.48C20.7859 170.793 20.7054 171.079 20.5444 171.339C20.3881 171.595 20.1822 171.801 19.9265 171.957C19.6708 172.109 19.3891 172.185 19.0813 172.185ZM36.6932 164.727C36.6932 166.313 36.3925 167.663 35.7912 168.776C35.1946 169.888 34.3802 170.738 33.348 171.325C32.3205 171.908 31.1652 172.199 29.8821 172.199C28.5895 172.199 27.4295 171.905 26.402 171.318C25.3745 170.731 24.5625 169.881 23.9659 168.768C23.3693 167.656 23.071 166.309 23.071 164.727C23.071 163.141 23.3693 161.792 23.9659 160.679C24.5625 159.566 25.3745 158.719 26.402 158.136C27.4295 157.549 28.5895 157.256 29.8821 157.256C31.1652 157.256 32.3205 157.549 33.348 158.136C34.3802 158.719 35.1946 159.566 35.7912 160.679C36.3925 161.792 36.6932 163.141 36.6932 164.727ZM33.5753 164.727C33.5753 163.7 33.4214 162.833 33.1136 162.128C32.8106 161.422 32.3821 160.887 31.8281 160.523C31.2741 160.158 30.6255 159.976 29.8821 159.976C29.1387 159.976 28.4901 160.158 27.9361 160.523C27.3821 160.887 26.9512 161.422 26.6435 162.128C26.3404 162.833 26.1889 163.7 26.1889 164.727C26.1889 165.755 26.3404 166.621 26.6435 167.327C26.9512 168.032 27.3821 168.567 27.9361 168.932C28.4901 169.296 29.1387 169.479 29.8821 169.479C30.6255 169.479 31.2741 169.296 31.8281 168.932C32.3821 168.567 32.8106 168.032 33.1136 167.327C33.4214 166.621 33.5753 165.755 33.5753 164.727ZM39.7649 172.185C39.2962 172.185 38.8937 172.019 38.5575 171.688C38.2261 171.351 38.0604 170.949 38.0604 170.48C38.0604 170.016 38.2261 169.618 38.5575 169.287C38.8937 168.955 39.2962 168.79 39.7649 168.79C40.2195 168.79 40.6172 168.955 40.9581 169.287C41.299 169.618 41.4695 170.016 41.4695 170.48C41.4695 170.793 41.389 171.079 41.228 171.339C41.0717 171.595 40.8658 171.801 40.6101 171.957C40.3544 172.109 40.0727 172.185 39.7649 172.185ZM51.9009 161.638C51.8441 161.065 51.6003 160.62 51.1694 160.303C50.7385 159.985 50.1538 159.827 49.4151 159.827C48.9132 159.827 48.4895 159.898 48.1438 160.04C47.7982 160.177 47.533 160.369 47.3484 160.615C47.1684 160.861 47.0785 161.141 47.0785 161.453C47.069 161.714 47.1235 161.941 47.2418 162.135C47.3649 162.329 47.533 162.497 47.7461 162.639C47.9592 162.777 48.2054 162.897 48.4847 163.001C48.7641 163.101 49.0624 163.186 49.3796 163.257L50.6864 163.57C51.3209 163.712 51.9033 163.901 52.4336 164.138C52.9639 164.375 53.4232 164.666 53.8114 165.011C54.1997 165.357 54.5004 165.764 54.7134 166.233C54.9312 166.702 55.0425 167.239 55.0472 167.845C55.0425 168.735 54.8152 169.507 54.3654 170.161C53.9203 170.809 53.2764 171.313 52.4336 171.673C51.5955 172.028 50.5846 172.206 49.4009 172.206C48.2267 172.206 47.204 172.026 46.3327 171.666C45.4663 171.306 44.7892 170.774 44.3015 170.068C43.8185 169.358 43.5652 168.48 43.5415 167.433H46.5174C46.5505 167.921 46.6902 168.328 46.9364 168.655C47.1874 168.977 47.5212 169.221 47.9379 169.386C48.3593 169.547 48.8351 169.628 49.3654 169.628C49.8862 169.628 50.3384 169.552 50.7219 169.401C51.1102 169.249 51.4109 169.038 51.6239 168.768C51.837 168.499 51.9435 168.188 51.9435 167.838C51.9435 167.511 51.8465 167.237 51.6523 167.014C51.4629 166.792 51.1836 166.602 50.8143 166.446C50.4497 166.29 50.0022 166.148 49.4719 166.02L47.8881 165.622C46.6618 165.324 45.6935 164.857 44.9833 164.223C44.2731 163.589 43.9203 162.734 43.9251 161.659C43.9203 160.778 44.1547 160.009 44.6282 159.351C45.1064 158.693 45.7622 158.179 46.5955 157.81C47.4289 157.44 48.3758 157.256 49.4364 157.256C50.516 157.256 51.4582 157.44 52.2631 157.81C53.0728 158.179 53.7025 158.693 54.1523 159.351C54.6022 160.009 54.8342 160.771 54.8484 161.638H51.9009ZM61.7447 157.455H65.5373L69.543 167.227H69.7134L73.7191 157.455H77.5117V172H74.5288V162.533H74.408L70.6438 171.929H68.6126L64.8484 162.497H64.7276V172H61.7447V157.455ZM93.4119 164.727C93.4119 166.313 93.1113 167.663 92.5099 168.776C91.9134 169.888 91.099 170.738 90.0668 171.325C89.0393 171.908 87.884 172.199 86.6009 172.199C85.3082 172.199 84.1482 171.905 83.1207 171.318C82.0933 170.731 81.2813 169.881 80.6847 168.768C80.0881 167.656 79.7898 166.309 79.7898 164.727C79.7898 163.141 80.0881 161.792 80.6847 160.679C81.2813 159.566 82.0933 158.719 83.1207 158.136C84.1482 157.549 85.3082 157.256 86.6009 157.256C87.884 157.256 89.0393 157.549 90.0668 158.136C91.099 158.719 91.9134 159.566 92.5099 160.679C93.1113 161.792 93.4119 163.141 93.4119 164.727ZM90.294 164.727C90.294 163.7 90.1402 162.833 89.8324 162.128C89.5294 161.422 89.1009 160.887 88.5469 160.523C87.9929 160.158 87.3442 159.976 86.6009 159.976C85.8575 159.976 85.2088 160.158 84.6548 160.523C84.1009 160.887 83.67 161.422 83.3622 162.128C83.0592 162.833 82.9077 163.7 82.9077 164.727C82.9077 165.755 83.0592 166.621 83.3622 167.327C83.67 168.032 84.1009 168.567 84.6548 168.932C85.2088 169.296 85.8575 169.479 86.6009 169.479C87.3442 169.479 87.9929 169.296 88.5469 168.932C89.1009 168.567 89.5294 168.032 89.8324 167.327C90.1402 166.621 90.294 165.755 90.294 164.727ZM94.4719 159.99V157.455H106.418V159.99H101.965V172H98.9251V159.99H94.4719ZM121.088 164.727C121.088 166.313 120.787 167.663 120.186 168.776C119.589 169.888 118.775 170.738 117.743 171.325C116.715 171.908 115.56 172.199 114.277 172.199C112.984 172.199 111.824 171.905 110.797 171.318C109.769 170.731 108.957 169.881 108.36 168.768C107.764 167.656 107.466 166.309 107.466 164.727C107.466 163.141 107.764 161.792 108.36 160.679C108.957 159.566 109.769 158.719 110.797 158.136C111.824 157.549 112.984 157.256 114.277 157.256C115.56 157.256 116.715 157.549 117.743 158.136C118.775 158.719 119.589 159.566 120.186 160.679C120.787 161.792 121.088 163.141 121.088 164.727ZM117.97 164.727C117.97 163.7 117.816 162.833 117.508 162.128C117.205 161.422 116.777 160.887 116.223 160.523C115.669 160.158 115.02 159.976 114.277 159.976C113.533 159.976 112.885 160.158 112.331 160.523C111.777 160.887 111.346 161.422 111.038 162.128C110.735 162.833 110.583 163.7 110.583 164.727C110.583 165.755 110.735 166.621 111.038 167.327C111.346 168.032 111.777 168.567 112.331 168.932C112.885 169.296 113.533 169.479 114.277 169.479C115.02 169.479 115.669 169.296 116.223 168.932C116.777 168.567 117.205 168.032 117.508 167.327C117.816 166.621 117.97 165.755 117.97 164.727ZM123.366 172V157.455H129.104C130.203 157.455 131.14 157.651 131.917 158.044C132.698 158.432 133.292 158.984 133.7 159.699C134.112 160.409 134.317 161.245 134.317 162.206C134.317 163.172 134.109 164.003 133.692 164.699C133.276 165.39 132.672 165.92 131.881 166.29C131.095 166.659 130.144 166.844 129.026 166.844H125.184V164.372H128.529C129.116 164.372 129.604 164.292 129.992 164.131C130.38 163.97 130.669 163.728 130.859 163.406C131.053 163.084 131.15 162.684 131.15 162.206C131.15 161.723 131.053 161.316 130.859 160.984C130.669 160.653 130.378 160.402 129.985 160.232C129.597 160.056 129.107 159.969 128.515 159.969H126.441V172H123.366ZM131.221 165.381L134.836 172H131.441L127.904 165.381H131.221ZM144.381 161.638C144.325 161.065 144.081 160.62 143.65 160.303C143.219 159.985 142.634 159.827 141.896 159.827C141.394 159.827 140.97 159.898 140.624 160.04C140.279 160.177 140.013 160.369 139.829 160.615C139.649 160.861 139.559 161.141 139.559 161.453C139.549 161.714 139.604 161.941 139.722 162.135C139.845 162.329 140.013 162.497 140.227 162.639C140.44 162.777 140.686 162.897 140.965 163.001C141.245 163.101 141.543 163.186 141.86 163.257L143.167 163.57C143.801 163.712 144.384 163.901 144.914 164.138C145.444 164.375 145.904 164.666 146.292 165.011C146.68 165.357 146.981 165.764 147.194 166.233C147.412 166.702 147.523 167.239 147.528 167.845C147.523 168.735 147.296 169.507 146.846 170.161C146.401 170.809 145.757 171.313 144.914 171.673C144.076 172.028 143.065 172.206 141.881 172.206C140.707 172.206 139.684 172.026 138.813 171.666C137.947 171.306 137.27 170.774 136.782 170.068C136.299 169.358 136.046 168.48 136.022 167.433H138.998C139.031 167.921 139.171 168.328 139.417 168.655C139.668 168.977 140.002 169.221 140.418 169.386C140.84 169.547 141.316 169.628 141.846 169.628C142.367 169.628 142.819 169.552 143.202 169.401C143.591 169.249 143.891 169.038 144.104 168.768C144.317 168.499 144.424 168.188 144.424 167.838C144.424 167.511 144.327 167.237 144.133 167.014C143.943 166.792 143.664 166.602 143.295 166.446C142.93 166.29 142.483 166.148 141.952 166.02L140.369 165.622C139.142 165.324 138.174 164.857 137.464 164.223C136.754 163.589 136.401 162.734 136.406 161.659C136.401 160.778 136.635 160.009 137.109 159.351C137.587 158.693 138.243 158.179 139.076 157.81C139.909 157.44 140.856 157.256 141.917 157.256C142.996 157.256 143.939 157.44 144.744 157.81C145.553 158.179 146.183 158.693 146.633 159.351C147.083 160.009 147.315 160.771 147.329 161.638H144.381Z" fill="#0A0B0D"/>
</svg>
